<svg version="1.1" xmlns="http://www.w3.org/2000/svg" xmlns:xlink="http://www.w3.org/1999/xlink" width="472.30379" height="327.59018" viewBox="0,0,472.30379,327.59018"><defs><radialGradient cx="240" cy="180" r="143.41799" gradientUnits="userSpaceOnUse" id="color-1"><stop offset="0" stop-color="#ffffff" stop-opacity="0"/><stop offset="1" stop-color="#ffffff"/></radialGradient></defs><g transform="translate(-3.8481,-16.20491)"><g data-paper-data="{&quot;isPaintingLayer&quot;:true}" fill-rule="evenodd" stroke-miterlimit="10" stroke-dasharray="" stroke-dashoffset="0" style="mix-blend-mode: normal"><path d="M186.732,30.34248c14.15388,-41.79874 242.59067,19.41072 234.29748,50.36134c-8.29319,30.95062 -66.95544,-0.67219 -73.52376,23.8411c-6.56831,24.51329 139.13672,43.77119 128.04306,85.17331c-11.09366,41.40212 -161.55435,25.95852 -168.47621,51.79123c-6.92185,25.83271 123.23331,40.67401 112.41838,81.03587c-10.81493,40.36187 -120.52688,12.66328 -158.27207,2.54949c-37.74519,-10.11379 -243.29297,-66.73795 -232.44033,-107.24056c10.85264,-40.50261 103.78784,-13.22847 112.06955,-44.13626c8.28172,-30.90779 -98.68605,-56.86535 -89,-93.01418c9.68605,-36.14884 205.91986,29.93542 211.83232,7.86979c5.91247,-22.06563 -91.1023,-16.4324 -76.94842,-58.23114zM21.99251,173.6865c-25.63039,-10.37942 -21.52061,-41.7094 -3.69934,-44.70847c17.82127,-2.99907 45.03495,14.40007 45.03495,25.73539c0,11.33532 -15.70522,29.3525 -41.33561,18.97308z" fill="#ffab19" stroke="none" stroke-width="1" stroke-linecap="butt" stroke-linejoin="miter"/><path d="M118.99605,80.80642v0c0,-24.42446 18.05879,-44.22441 40.33546,-44.22441h161.33698v0c10.69763,0 20.95713,4.65934 28.5215,12.95303c7.56437,8.29368 11.81397,19.54234 11.81397,31.27138v198.38719c0,24.42445 -18.0588,44.22438 -40.33546,44.22438h-161.33698c-22.27666,0 -40.33546,-19.79993 -40.33546,-44.22438z" fill="#ffffff" stroke="url(#color-1)" stroke-width="0" stroke-linecap="square" stroke-linejoin="miter"/><path d="M149.49488,56.41478h181.0102c3.61889,0 7.08955,1.4376 9.6485,3.99652c2.55892,2.55893 3.9965,6.0296 3.9965,9.64848v14.02912c0,0.00096 -0.00079,0.00174 -0.00174,0.00174l-208.2985,-0.00174v0c-0.00096,0 -0.00173,-0.00077 -0.00173,-0.00173l0.00173,-14.02738v0c0,-7.53592 6.10908,-13.64501 13.64501,-13.64501z" fill="#f2f2f2" stroke="none" stroke-width="1" stroke-linecap="square" stroke-linejoin="miter"/><path d="M149.49488,56.41478h181.0102c3.61889,0 7.08955,1.4376 9.6485,3.99652c2.55892,2.55893 3.9965,6.0296 3.9965,9.64848v14.02912c0,0.00096 -0.00079,0.00174 -0.00174,0.00174l-208.2985,-0.00174v0c-0.00096,0 -0.00173,-0.00077 -0.00173,-0.00173l0.00173,-14.02738v0c0,-7.53592 6.10908,-13.64501 13.64501,-13.64501z" fill="none" stroke="#d9d9d9" stroke-width="1" stroke-linecap="butt" stroke-linejoin="round"/><path d="M185.86518,248.27934v0c0,-3.51027 2.84562,-6.35589 6.35589,-6.35589h95.55784c1.68569,0 3.30233,0.66965 4.49428,1.86159c1.19196,1.19196 1.86161,2.80861 1.86161,4.4943v9.49685c0,3.51026 -2.84564,6.35589 -6.35589,6.35589h-95.55784v0c-3.51027,0 -6.35589,-2.84564 -6.35589,-6.35589z" fill="#4d97ff" stroke="none" stroke-width="1" stroke-linecap="square" stroke-linejoin="miter"/><path d="M213.5495,281.31885v0c0,-1.72798 1.40078,-3.12879 3.12876,-3.12879h46.64344c0.8298,0 1.62562,0.32964 2.21239,0.91641c0.58675,0.58675 0.91639,1.38257 0.91639,2.21237v7.79363c0,1.72798 -1.40081,3.12879 -3.12879,3.12879h-46.64344c-1.72798,0 -3.12876,-1.40081 -3.12876,-3.12879z" fill="#fbb43a" stroke="none" stroke-width="1" stroke-linecap="square" stroke-linejoin="miter"/><path d="M158.36441,312.52609v0c0,-1.39664 1.1322,-2.52881 2.52881,-2.52881h76.57797c0.67067,0 1.31388,0.2664 1.78812,0.74064c0.47424,0.47424 0.74066,1.11747 0.74066,1.78816v0v0c0,1.3966 -1.13217,2.52881 -2.52879,2.52881h-76.57797v0c-1.39662,0 -2.52881,-1.13221 -2.52881,-2.52881z" fill="#d9d9d9" stroke="none" stroke-width="1" stroke-linecap="square" stroke-linejoin="miter"/><path d="M242.88908,312.52609v0c0,-1.39664 1.1322,-2.52881 2.52881,-2.52881h11.86907c0.67067,0 1.31389,0.2664 1.78813,0.74064c0.47424,0.47424 0.74069,1.11747 0.74069,1.78816v0v0c0,1.3966 -1.1322,2.52881 -2.52881,2.52881h-11.86907c-1.39662,0 -2.52881,-1.13221 -2.52881,-2.52881z" fill="#6d9eeb" stroke="none" stroke-width="1" stroke-linecap="square" stroke-linejoin="miter"/><path d="M242.88908,312.52609v0c0,-1.39664 1.1322,-2.52881 2.52881,-2.52881h11.86907c0.67067,0 1.31389,0.2664 1.78813,0.74064c0.47424,0.47424 0.74069,1.11747 0.74069,1.78816v0v0c0,1.3966 -1.1322,2.52881 -2.52881,2.52881h-11.86907c-1.39662,0 -2.52881,-1.13221 -2.52881,-2.52881z" fill="none" stroke="#6d9eeb" stroke-width="1" stroke-linecap="butt" stroke-linejoin="round"/><path d="M135.84988,84.08889h208.30023v65.76937h-208.30023z" fill="#ffffff" stroke="none" stroke-width="1" stroke-linecap="square" stroke-linejoin="miter"/><path d="M135.84988,84.08889h208.30023v65.76937h-208.30023z" fill="none" stroke="#d9d9d9" stroke-width="1" stroke-linecap="butt" stroke-linejoin="round"/><path d="M135.84988,171.97681v0c0,-2.50227 2.0285,-4.53078 4.53079,-4.53078h90.1329c1.20163,0 2.35405,0.47734 3.20375,1.32705c0.84968,0.84968 1.32703,2.00211 1.32703,3.20373v13.14706c0,2.50229 -2.0285,4.53079 -4.53078,4.53079h-90.1329c-2.50228,0 -4.53079,-2.0285 -4.53079,-4.53079z" fill="#fafafa" stroke="none" stroke-width="1" stroke-linecap="square" stroke-linejoin="miter"/><path d="M135.84988,171.97681v0c0,-2.50227 2.0285,-4.53078 4.53079,-4.53078h90.1329c1.20163,0 2.35405,0.47734 3.20375,1.32705c0.84968,0.84968 1.32703,2.00211 1.32703,3.20373v13.14706c0,2.50229 -2.0285,4.53079 -4.53078,4.53079h-90.1329c-2.50228,0 -4.53079,-2.0285 -4.53079,-4.53079z" fill="none" stroke="#d9d9d9" stroke-width="1" stroke-linecap="butt" stroke-linejoin="round"/><path d="M135.84988,209.16548v0c0,-2.0471 1.65951,-3.7066 3.70662,-3.7066h200.88698c0.98307,0 1.92585,0.39052 2.62097,1.08563c0.69516,0.69512 1.08565,1.6379 1.08565,2.62097v14.79539c0,2.04712 -1.65952,3.70662 -3.70662,3.70662h-200.88698c-2.0471,0 -3.70662,-1.65951 -3.70662,-3.70662z" fill="#ffffff" stroke="none" stroke-width="1" stroke-linecap="square" stroke-linejoin="miter"/><path d="M135.84988,209.16548v0c0,-2.0471 1.65951,-3.7066 3.70662,-3.7066h200.88698c0.98307,0 1.92585,0.39052 2.62097,1.08563c0.69516,0.69512 1.08565,1.6379 1.08565,2.62097v14.79539c0,2.04712 -1.65952,3.70662 -3.70662,3.70662h-200.88698c-2.0471,0 -3.70662,-1.65951 -3.70662,-3.70662z" fill="none" stroke="#4d97ff" stroke-width="1" stroke-linecap="butt" stroke-linejoin="round"/><path d="M135.84988,201.28036v0c0,-1.39662 1.13219,-2.52879 2.5288,-2.52879h76.57797c0.67067,0 1.31389,0.26642 1.78815,0.74066c0.47424,0.47424 0.74066,1.11745 0.74066,1.78812v0v0c0,1.39662 -1.1322,2.52881 -2.52881,2.52881h-76.57797v0c-1.39661,0 -2.5288,-1.1322 -2.5288,-2.52881z" fill="#d9d9d9" stroke="none" stroke-width="1" stroke-linecap="square" stroke-linejoin="miter"/><path d="M135.84988,163.26754v0c0,-1.39662 1.13219,-2.52881 2.5288,-2.52881h36.54533c0.6707,0 1.31391,0.26643 1.78815,0.74067c0.47424,0.47424 0.74066,1.11747 0.74066,1.78815v0v0c0,1.39662 -1.1322,2.52881 -2.52881,2.52881h-36.54533c-1.39661,0 -2.5288,-1.1322 -2.5288,-2.52881z" fill="#d9d9d9" stroke="none" stroke-width="1" stroke-linecap="square" stroke-linejoin="miter"/><path d="M244.95565,171.9836v0c0,-2.50227 2.02849,-4.53078 4.53078,-4.53078h90.1329c1.20165,0 2.35405,0.47737 3.20373,1.32705c0.84968,0.84968 1.32705,2.00211 1.32705,3.20373v13.14708c0,2.50227 -2.02849,4.53078 -4.53078,4.53078h-90.1329c-2.50229,0 -4.53078,-2.0285 -4.53078,-4.53078z" fill="#ffffff" stroke="none" stroke-width="1" stroke-linecap="square" stroke-linejoin="miter"/><path d="M244.95565,171.9836v0c0,-2.50227 2.02849,-4.53078 4.53078,-4.53078h90.1329c1.20165,0 2.35405,0.47737 3.20373,1.32705c0.84968,0.84968 1.32705,2.00211 1.32705,3.20373v13.14708c0,2.50227 -2.02849,4.53078 -4.53078,4.53078h-90.1329c-2.50229,0 -4.53078,-2.0285 -4.53078,-4.53078z" fill="none" stroke="#4d97ff" stroke-width="1" stroke-linecap="butt" stroke-linejoin="round"/><path d="M262.70487,312.52609v0c0,-1.39664 1.13217,-2.52881 2.52879,-2.52881h53.87988c0.6707,0 1.31392,0.2664 1.78816,0.74064c0.47424,0.47424 0.74064,1.11747 0.74064,1.78816v0v0c0,1.3966 -1.13218,2.52881 -2.52881,2.52881h-53.87988c-1.39662,0 -2.52879,-1.13221 -2.52879,-2.52881z" fill="#d9d9d9" stroke="none" stroke-width="1" stroke-linecap="square" stroke-linejoin="miter"/></g></g></svg>