<svg version="1.1" viewBox="0.0 0.0 1396.8083989501313 445.95800524934384" fill="none" stroke="none" stroke-linecap="square" stroke-miterlimit="10" xmlns:xlink="http://www.w3.org/1999/xlink" xmlns="http://www.w3.org/2000/svg"><clipPath id="p.0"><path d="m0 0l1396.8083 0l0 445.958l-1396.8083 0l0 -445.958z" clip-rule="nonzero"/></clipPath><g clip-path="url(#p.0)"><path fill="#000000" fill-opacity="0.0" d="m0 0l1396.8083 0l0 445.958l-1396.8083 0z" fill-rule="evenodd"/><path fill="#afd1ff" d="m0 0.002624672l1399.9685 0l0 445.95276l-1399.9685 0z" fill-rule="evenodd"/><path fill="#ffffff" d="m720.47504 220.70341c-5.56427 0 -10.543274 2.577423 -13.824097 6.67717c-1.1706543 -0.7007904 -2.5774536 -1.1128693 -4.0997314 -1.1128693c-4.3359985 0 -7.908142 3.5747986 -7.908142 8.026245c0 0.9370117 0.17584229 1.8162689 0.4671631 2.6351776l-0.4671631 0c-5.506592 0 -9.960632 4.6299133 -9.960632 10.251968c0 5.6246643 4.4540405 10.194229 9.960632 10.194229l36.083984 0l0 -0.06036377l11.598389 0c4.9212646 0 8.963257 -4.0997467 8.963257 -9.196869c0 -5.036743 -3.984253 -9.136475 -8.963257 -9.136475c-1.4645386 0 -2.8109741 0.34907532 -3.9816284 0.9370117c0.115478516 -0.29397583 0.115478516 -0.5879364 0.115478516 -0.9370117c0 -10.076111 -8.083984 -18.278214 -17.984253 -18.278214z" fill-rule="evenodd"/><path fill="#ffffff" d="m268.02887 302.25067c-13.123352 0 -23.666672 10.83725 -23.666672 24.136475c0 0.4671936 0 0.8188782 0.057754517 1.2283325c-1.5223083 -0.7611389 -3.280838 -1.2283325 -5.1548615 -1.2283325c-6.561676 0 -11.892395 5.4461975 -11.892395 12.065613c0 6.679779 5.330719 12.125977 11.892395 12.125977l62.797897 0c7.3228455 0 13.181091 -6.0341187 13.181091 -13.472443c0 -7.4409485 -5.9186096 -13.472443 -13.181091 -13.472443l-0.58529663 0c0.3517151 -1.0551147 0.58529663 -2.225708 0.58529663 -3.4566956c0 -5.858246 -4.6876526 -10.603668 -10.370087 -10.603668c-1.989502 0 -3.7480164 0.46981812 -5.3884277 1.5223083c-4.3937073 -5.4461975 -10.89502 -8.845123 -18.275604 -8.845123z" fill-rule="evenodd"/><path fill="#ffffff" d="m398.28085 56.44882c-11.364838 0 -20.501312 9.372707 -20.501312 20.913387c0 0.35170746 0 0.645668 0.057739258 0.9973755c-1.4068298 -0.7034149 -2.9291382 -1.0551224 -4.5118103 -1.0551224c-5.6798096 0 -10.249359 4.6272964 -10.249359 10.427826c0 5.7978973 4.5695496 10.485565 10.249359 10.485565l54.480316 0c6.2677 0 11.422546 -5.215225 11.422546 -11.658798c0 -6.4435654 -5.154846 -11.656166 -11.422546 -11.656166l-0.5275574 0c0.35168457 -0.9370041 0.5275574 -1.9343796 0.5275574 -2.989502c0 -5.036743 -4.041992 -9.136482 -9.020996 -9.136482c-1.6981812 0 -3.223114 0.40945053 -4.6273193 1.3464584c-3.8083801 -4.6272964 -9.490814 -7.6745415 -15.876617 -7.6745415z" fill-rule="evenodd"/><path fill="#ffffff" d="m1012.9055 68.296585c-5.564331 0 -10.543335 2.5774307 -13.824158 6.67717c-1.1705933 -0.7007904 -2.5773926 -1.1128616 -4.0997314 -1.1128616c-4.3359375 0 -7.908142 3.5747986 -7.908142 8.026245c0 0.9370117 0.17584229 1.8162766 0.46722412 2.63517l-0.46722412 0c-5.506531 0 -9.960632 4.629921 -9.960632 10.251968c0 5.624672 4.4541016 10.194229 9.960632 10.194229l36.083984 0l0 -0.0603714l11.598389 0c4.9212646 0 8.963257 -4.099739 8.963257 -9.196846c0 -5.036751 -3.984253 -9.136482 -8.963257 -9.136482c-1.4644775 0 -2.8110352 0.34907532 -3.9815674 0.9370041c0.115478516 -0.29396057 0.115478516 -0.5879288 0.115478516 -0.9370041c0 -10.076118 -8.083984 -18.278221 -17.984253 -18.278221z" fill-rule="evenodd"/><path fill="#ffffff" d="m1175.2362 261.24408c-5.3306885 0 -10.07605 2.45932 -13.238892 6.443573c-1.1705322 -0.7611389 -2.4592285 -1.112854 -3.8660889 -1.112854c-4.1574707 0 -7.5563965 3.4566956 -7.5563965 7.67453c0 0.87664795 0.11804199 1.7559204 0.40942383 2.5774536l-0.40942383 0c-5.272949 0 -9.548584 4.3936768 -9.548584 9.782135c0 5.3884583 4.275635 9.782166 9.548584 9.782166l45.57483 0c4.7453613 0 8.553711 -3.984253 8.553711 -8.787415c0 -4.860901 -3.8660889 -8.7847595 -8.553711 -8.7847595c-1.4042969 0 -2.635254 0.2913208 -3.8084717 0.87661743c0.060424805 -0.2913208 0.060424805 -0.58529663 0.060424805 -0.87661743c0 -9.78479 -7.6745605 -17.57483 -17.165405 -17.57483z" fill-rule="evenodd"/><path fill="#ffffff" d="m948.937 265.4567c-7.380554 0 -14.060364 3.4566956 -18.451477 8.845154c-1.5826416 -0.994751 -3.456665 -1.5223083 -5.3910522 -1.5223083c-5.7979126 0 -10.485535 4.745392 -10.485535 10.603668c0 1.2886963 0.23358154 2.45932 0.5852661 3.454071l-0.5852661 0c-7.322876 0 -13.238892 6.091858 -13.238892 13.475067c0 7.496063 5.9160156 13.472443 13.238892 13.472443l63.38318 0c6.619446 0 11.950134 -5.3884583 11.950134 -12.068268c0 -6.6771545 -5.3306885 -12.065613 -11.950134 -12.065613c-1.8740234 0 -3.6325684 0.40945435 -5.2703247 1.228363c0.115478516 -0.4671936 0.115478516 -0.8189087 0.115478516 -1.228363c0 -13.356934 -10.719177 -24.194214 -23.900269 -24.194214z" fill-rule="evenodd"/><path fill="#ffffff" d="m1055.9868 346.74014c-8.083984 0 -15.406738 3.8084106 -20.2677 9.782166c-1.7585449 -1.112854 -3.7506104 -1.6981506 -5.918579 -1.6981506c-6.3832397 0 -11.480347 5.272949 -11.480347 11.716522c0 1.3464661 0.17584229 2.6351624 0.6430664 3.9238892c-0.23358154 -0.11810303 -0.46722412 -0.11810303 -0.6430664 -0.11810303c-8.083984 0 -14.585266 6.679779 -14.585266 14.939636c0 8.317566 6.5012817 14.936981 14.585266 14.936981l52.603638 0l0 -0.057739258l16.989502 0c7.2625732 0 13.12085 -5.9763794 13.12085 -13.414673c0 -7.383209 -5.9160156 -13.356964 -13.12085 -13.356964c-2.1102295 0 -3.984253 0.4671936 -5.7401123 1.3464355c0.057739258 -0.40942383 0.057739258 -0.87924194 0.057739258 -1.2886963c0 -14.818909 -11.716553 -26.711304 -26.24414 -26.711304z" fill-rule="evenodd"/><path fill="#ffffff" d="m774.65094 360.0c-13.123352 0 -23.666687 10.83728 -23.666687 24.136475c0 0.4671936 0 0.8189087 0.057739258 1.228363c-1.5222778 -0.76116943 -3.2808228 -1.228363 -5.154846 -1.228363c-6.5617065 0 -11.892395 5.4461975 -11.892395 12.065613c0 6.6798096 5.3306885 12.126007 11.892395 12.126007l62.797913 0c7.322815 0 13.181091 -6.0341187 13.181091 -13.472443c0 -7.4409485 -5.91864 -13.472443 -13.181091 -13.472443l-0.58532715 0c0.35168457 -1.0551147 0.58532715 -2.2257385 0.58532715 -3.4566956c0 -5.8582764 -4.687683 -10.603668 -10.370117 -10.603668c-1.989502 0 -3.7479858 0.46981812 -5.3884277 1.5223083c-4.3936768 -5.4461975 -10.89502 -8.845154 -18.275574 -8.845154z" fill-rule="evenodd"/><path fill="#ffffff" d="m444.5853 408.33072c-7.3805847 0 -14.060364 3.4566956 -18.451447 8.845123c-1.5826721 -0.994751 -3.4566956 -1.5223083 -5.391083 -1.5223083c-5.797882 0 -10.485535 4.7454224 -10.485535 10.603699c0 1.2886963 0.23358154 2.4592896 0.58529663 3.4540405l-0.58529663 0c-7.3228455 0 -13.238861 6.0918884 -13.238861 13.475067c0 7.496063 5.9160156 13.472443 13.238861 13.472443l63.38318 0c6.619446 0 11.950134 -5.3884277 11.950134 -12.068237c0 -6.6771545 -5.3306885 -12.065613 -11.950134 -12.065613c-1.8739929 0 -3.6325378 0.40945435 -5.2703247 1.228363c0.115478516 -0.4671936 0.115478516 -0.8189087 0.115478516 -1.228363c0 -13.356964 -10.719147 -24.194214 -23.900269 -24.194214z" fill-rule="evenodd"/><path fill="#ffffff" d="m615.27295 82.16798c-8.083984 0 -15.406799 3.808403 -20.2677 9.782158c-1.7585449 -1.1128616 -3.7506714 -1.6981659 -5.91864 -1.6981659c-6.3831787 0 -11.480286 5.2729645 -11.480286 11.716537c0 1.3464584 0.17584229 2.63517 0.6430054 3.9238815c-0.23358154 -0.11811066 -0.4671631 -0.11811066 -0.6430054 -0.11811066c-8.083984 0 -14.585327 6.6797943 -14.585327 14.939636c0 8.317581 6.501343 14.937012 14.585327 14.937012l52.603638 0l0 -0.057754517l16.989502 0c7.262451 0 13.120728 -5.9763794 13.120728 -13.414696c0 -7.3832016 -5.9160156 -13.356949 -13.120728 -13.356949c-2.1102295 0 -3.984253 0.46718597 -5.7401733 1.3464508c0.057800293 -0.40944672 0.057800293 -0.87926483 0.057800293 -1.2887115c0 -14.818901 -11.716553 -26.711288 -26.24414 -26.711288z" fill-rule="evenodd"/><path fill="#ffffff" d="m131.17323 198.81364c-13.123367 0 -23.666672 10.83728 -23.666672 24.13649c0 0.4671936 0 0.81889343 0.057746887 1.2283478c-1.522316 -0.7611542 -3.2808456 -1.2283478 -5.1548615 -1.2283478c-6.561676 0 -11.892387 5.4461975 -11.892387 12.065613c0 6.6797943 5.3307114 12.125992 11.892387 12.125992l62.797905 0c7.32283 0 13.181107 -6.034134 13.181107 -13.472443c0 -7.4409485 -5.91864 -13.472443 -13.181107 -13.472443l-0.5853119 0c0.3517151 -1.0551147 0.5853119 -2.2257233 0.5853119 -3.4566956c0 -5.858261 -4.687668 -10.603668 -10.370087 -10.603668c-1.989502 0 -3.7480316 0.46980286 -5.388443 1.5223083c-4.3937073 -5.4461975 -10.89502 -8.845154 -18.275589 -8.845154z" fill-rule="evenodd"/><path fill="#ffffff" d="m89.33596 56.44882c-11.36483 0 -20.501312 9.372707 -20.501312 20.913387c0 0.35170746 0 0.645668 0.057739258 0.9973755c-1.4068222 -0.7034149 -2.9291306 -1.0551224 -4.5118103 -1.0551224c-5.6797905 0 -10.249344 4.6272964 -10.249344 10.427826c0 5.7978973 4.5695534 10.485565 10.249344 10.485565l54.480316 0c6.2677155 0 11.422569 -5.215225 11.422569 -11.658798c0 -6.4435654 -5.154854 -11.656166 -11.422569 -11.656166l-0.5275574 0c0.35169983 -0.9370041 0.5275574 -1.9343796 0.5275574 -2.989502c0 -5.036743 -4.041992 -9.136482 -9.020996 -9.136482c-1.6981659 0 -3.2230988 0.40945053 -4.6272964 1.3464584c-3.808403 -4.6272964 -9.490814 -7.6745415 -15.87664 -7.6745415z" fill-rule="evenodd"/><path fill="#ffffff" d="m1337.1207 192.7664c-5.3306885 0 -10.07605 2.45932 -13.238892 6.443573c-1.1705322 -0.7611542 -2.4592285 -1.1128693 -3.8660889 -1.1128693c-4.1574707 0 -7.5563965 3.4566956 -7.5563965 7.6745453c0 0.87664795 0.11804199 1.7559052 0.40942383 2.577423l-0.40942383 0c-5.272949 0 -9.548584 4.3937073 -9.548584 9.782166c0 5.388443 4.275635 9.78215 9.548584 9.78215l45.57483 0c4.7453613 0 8.553711 -3.984253 8.553711 -8.787399c0 -4.860901 -3.8660889 -8.78479 -8.553711 -8.78479c-1.4042969 0 -2.635254 0.29135132 -3.8084717 0.87664795c0.060424805 -0.29133606 0.060424805 -0.58529663 0.060424805 -0.87664795c0 -9.784775 -7.6745605 -17.574799 -17.165405 -17.574799z" fill-rule="evenodd"/><path fill="#ffffff" d="m1263.3386 91.20473c-7.380615 0 -14.060425 3.456688 -18.451538 8.845139c-1.5826416 -0.994751 -3.456665 -1.5223083 -5.390991 -1.5223083c-5.7979736 0 -10.485596 4.745407 -10.485596 10.603676c0 1.2887115 0.23364258 2.45932 0.58532715 3.454071l-0.58532715 0c-7.322876 0 -13.238892 6.091858 -13.238892 13.4750595c0 7.496063 5.9160156 13.472443 13.238892 13.472443l63.38318 0c6.619507 0 11.950195 -5.388443 11.950195 -12.068237c0 -6.67717 -5.3306885 -12.06562 -11.950195 -12.06562c-1.8740234 0 -3.6325684 0.40944672 -5.2702637 1.2283478c0.115478516 -0.4671936 0.115478516 -0.81890106 0.115478516 -1.2283478c0 -13.3569565 -10.719238 -24.194221 -23.900269 -24.194221z" fill-rule="evenodd"/><path fill="#ffffff" d="m1338.3517 419.6299c-8.083984 0 -15.40686 3.8084106 -20.2677 9.782166c-1.7585449 -1.112854 -3.7506104 -1.6981812 -5.918579 -1.6981812c-6.383301 0 -11.480347 5.2729797 -11.480347 11.716553c0 1.3464661 0.17578125 2.6351624 0.6430664 3.9238892c-0.23364258 -0.118133545 -0.46728516 -0.118133545 -0.6430664 -0.118133545c-8.083984 0 -14.585327 6.6798096 -14.585327 14.939636c0 8.317596 6.501343 14.937012 14.585327 14.937012l52.603638 0l0 -0.057739258l16.989502 0c7.262451 0 13.120728 -5.9763794 13.120728 -13.414703c0 -7.3831787 -5.9160156 -13.356934 -13.120728 -13.356934c-2.1102295 0 -3.984253 0.4671936 -5.7401123 1.3464355c0.057739258 -0.40945435 0.057739258 -0.87924194 0.057739258 -1.2886963c0 -14.818909 -11.716553 -26.711304 -26.24414 -26.711304z" fill-rule="evenodd"/><path fill="#ffffff" d="m780.916 14.6797905c-11.364807 0 -20.501343 9.372704 -20.501343 20.913383c0 0.35170746 0 0.64567184 0.057739258 0.9973755c-1.4067993 -0.7034111 -2.9290771 -1.0551147 -4.51178 -1.0551147c-5.6798096 0 -10.249329 4.6272964 -10.249329 10.427818c0 5.797901 4.569519 10.485565 10.249329 10.485565l54.480286 0c6.267761 0 11.422607 -5.2152214 11.422607 -11.658791c0 -6.443569 -5.154846 -11.65617 -11.422607 -11.65617l-0.52752686 0c0.35168457 -0.9370079 0.52752686 -1.9343834 0.52752686 -2.9895c0 -5.036747 -4.041992 -9.136484 -9.020996 -9.136484c-1.6981201 0 -3.2230835 0.40944862 -4.6272583 1.3464565c-3.8084106 -4.6272964 -9.490845 -7.6745396 -15.876648 -7.6745396z" fill-rule="evenodd"/><path fill="#ffffff" d="m57.02887 422.2047c-13.12336 0 -23.666664 10.83728 -23.666664 24.136505c0 0.4671936 0 0.8188782 0.057743073 1.2283325c-1.5223103 -0.7611389 -3.2808418 -1.2283325 -5.1548576 -1.2283325c-6.561678 0 -11.892387 5.4461975 -11.892387 12.065613c0 6.679779 5.3307095 12.125977 11.892387 12.125977l62.797905 0c7.32283 0 13.181099 -6.0341187 13.181099 -13.472443c0 -7.4409485 -5.9186325 -13.472443 -13.181099 -13.472443l-0.58530426 0c0.35170746 -1.0551147 0.58530426 -2.225708 0.58530426 -3.4566956c0 -5.858246 -4.687668 -10.603668 -10.370079 -10.603668c-1.989502 0 -3.7480316 0.46981812 -5.3884583 1.5223083c-4.3936996 -5.4461975 -10.895012 -8.845154 -18.275589 -8.845154z" fill-rule="evenodd"/><path fill="#ffffff" d="m464.61942 171.71654c-5.5643005 0 -10.543304 2.577423 -13.824127 6.67717c-1.1706238 -0.7007904 -2.5774536 -1.1128693 -4.099762 -1.1128693c-4.3359375 0 -7.9081116 3.5747986 -7.9081116 8.026245c0 0.9370117 0.17584229 1.8162689 0.4671936 2.6351776l-0.4671936 0c-5.5065613 0 -9.960632 4.6299133 -9.960632 10.251968c0 5.6246643 4.454071 10.194229 9.960632 10.194229l36.083984 0l0 -0.06037903l11.598419 0c4.9212646 0 8.963257 -4.0997314 8.963257 -9.196838c0 -5.0367584 -3.984253 -9.13649 -8.963257 -9.13649c-1.4645691 0 -2.8110352 0.34907532 -3.9816284 0.9370117c0.115478516 -0.29396057 0.115478516 -0.5879364 0.115478516 -0.9370117c0 -10.076111 -8.083984 -18.278214 -17.984253 -18.278214z" fill-rule="evenodd"/></g></svg>